<svg width="36" height="36" viewBox="0 0 36 36" fill="none" xmlns="http://www.w3.org/2000/svg">
<rect x="0.45" y="0.45" width="35.1" height="35.1" rx="17.55" stroke="white" stroke-width="0.9"/>
<path d="M8.04999 8.05005H10.05L12.71 20.47C12.8076 20.9249 13.0607 21.3315 13.4257 21.6199C13.7907 21.9083 14.2449 22.0604 14.71 22.05H24.49C24.9452 22.0493 25.3865 21.8933 25.741 21.6079C26.0956 21.3224 26.3421 20.9246 26.44 20.48L28.09 13.05H11.12M15 27C15 27.5523 14.5523 28 14 28C13.4477 28 13 27.5523 13 27C13 26.4478 13.4477 26 14 26C14.5523 26 15 26.4478 15 27ZM26 27C26 27.5523 25.5523 28 25 28C24.4477 28 24 27.5523 24 27C24 26.4478 24.4477 26 25 26C25.5523 26 26 26.4478 26 27Z" stroke="white" stroke-width="2" stroke-linecap="round" stroke-linejoin="round"/>
</svg>
