<svg width="36" height="36" viewBox="0 0 36 36" fill="none" xmlns="http://www.w3.org/2000/svg">
<rect x="0.5" y="0.5" width="35" height="35" rx="17.5" stroke="white"/>
<path d="M25 27V25C25 23.9391 24.5786 22.9217 23.8284 22.1716C23.0783 21.4214 22.0609 21 21 21H15C13.9391 21 12.9217 21.4214 12.1716 22.1716C11.4214 22.9217 11 23.9391 11 25V27M22 13C22 15.2091 20.2091 17 18 17C15.7909 17 14 15.2091 14 13C14 10.7909 15.7909 9 18 9C20.2091 9 22 10.7909 22 13Z" stroke="white" stroke-width="2" stroke-linecap="round" stroke-linejoin="round"/>
</svg>
